<svg width="115" height="121" viewBox="0 0 115 121" fill="none" xmlns="http://www.w3.org/2000/svg">
<path d="M55.086 2.45151L3.30775 55.6044C2.07323 56.8717 2.97116 59 4.74037 59H10C11.1046 59 12 59.8954 12 61V114.5C12 115.605 12.8954 116.5 14 116.5H102C103.105 116.5 104 115.605 104 114.5V61C104 59.8954 104.895 59 106 59H109.672C111.453 59 112.346 56.8457 111.086 55.5858L57.9329 2.43286C57.1446 1.64457 55.8639 1.65296 55.086 2.45151Z" fill="#FBC22E" stroke="#FBC22E" stroke-width="3" stroke-linejoin="round"/>
<path d="M45.0747 42.8841C44.7815 42.6038 44.4333 42.3815 44.0502 42.2298C43.667 42.0781 43.2563 42 42.8415 42C42.4268 42 42.0161 42.0781 41.6329 42.2298C41.2497 42.3815 40.9016 42.6038 40.6084 42.8841C40.2679 43.2094 39.7318 43.2094 39.3913 42.8841C38.799 42.3182 37.9958 42.0003 37.1582 42.0003C36.3206 42.0003 35.5173 42.3182 34.925 42.8841C34.3327 43.4499 34 44.2174 34 45.0177C34 45.818 34.3327 46.5855 34.925 47.1513L35.5335 47.7327L38.6182 50.6799C39.3912 51.4185 40.6084 51.4185 41.3815 50.68L44.4662 47.7327L45.0747 47.1513C45.368 46.8712 45.6007 46.5386 45.7595 46.1725C45.9183 45.8064 46 45.414 46 45.0177C46 44.6214 45.9183 44.229 45.7595 43.8629C45.6007 43.4968 45.368 43.1642 45.0747 42.8841Z" fill="white" stroke="white" stroke-width="3" stroke-linecap="round" stroke-linejoin="round"/>
<path d="M37.5 119.5C45.5174 116.252 47.3337 102.05 46.4048 96.2452C46.2859 95.5018 45.6749 94.9742 44.9377 94.8218C40.964 94.0006 33.586 91.9944 28.2669 88.8929C22.7404 85.6704 25.3871 74.6721 27.7693 68.5498C28.0594 67.8043 28.7856 67.3304 29.5855 67.3304H44.1403C45.2449 67.3304 46.1335 66.4339 46.253 65.3359C47.0287 58.2081 52.0186 47 67.7116 47C84.603 47 89.0943 59.9853 89.277 66.8907C89.2848 67.1829 89.3448 67.4618 89.4668 67.7275C93.7646 77.09 99.4908 95.0536 89.2829 95.0536M89.2829 95.0536C79.8339 95.0536 74.4568 95.0536 72.496 95.0536C72.1856 95.0536 71.8791 94.9876 71.6156 94.8235C68.0327 92.5931 64.4679 84.4195 76.3402 67.3304M89.2829 95.0536V118" stroke="white" stroke-width="3" stroke-linecap="round" stroke-linejoin="round"/>
</svg>
